<?xml version="1.0" encoding="UTF-8" standalone="no"?>
<svg
   xmlns:dc="http://purl.org/dc/elements/1.1/"
   xmlns:cc="http://creativecommons.org/ns#"
   xmlns:rdf="http://www.w3.org/1999/02/22-rdf-syntax-ns#"
   xmlns:svg="http://www.w3.org/2000/svg"
   xmlns="http://www.w3.org/2000/svg"
   xmlns:sodipodi="http://sodipodi.sourceforge.net/DTD/sodipodi-0.dtd"
   xmlns:inkscape="http://www.inkscape.org/namespaces/inkscape"
   inkscape:version="1.0 (4035a4fb49, 2020-05-01)"
   height="159.09729"
   width="741.82343"
   sodipodi:docname="banner.svg"
   xml:space="preserve"
   viewBox="0 0 741.82343 159.09729"
   y="0px"
   x="0px"
   id="Layer_1"
   version="1.1"><metadata
   id="metadata35"><rdf:RDF><cc:Work
       rdf:about=""><dc:format>image/svg+xml</dc:format><dc:type
         rdf:resource="http://purl.org/dc/dcmitype/StillImage" /><dc:title></dc:title></cc:Work></rdf:RDF></metadata><defs
   id="defs33" /><sodipodi:namedview
   inkscape:current-layer="Layer_1"
   inkscape:window-maximized="0"
   inkscape:window-y="0"
   inkscape:window-x="0"
   inkscape:cy="80.308452"
   inkscape:cx="368.83345"
   inkscape:zoom="1.6125"
   fit-margin-bottom="0"
   fit-margin-right="0"
   fit-margin-left="0"
   fit-margin-top="0"
   showgrid="false"
   id="namedview31"
   inkscape:window-height="930"
   inkscape:window-width="2001"
   inkscape:pageshadow="2"
   inkscape:pageopacity="0"
   guidetolerance="10"
   gridtolerance="10"
   objecttolerance="10"
   borderopacity="1"
   bordercolor="#666666"
   pagecolor="#ffffff" />
<style
   id="style2"
   type="text/css">
	.st0{fill:#84B269;}
	.st1{fill:#353E4F;}
</style>
<g
   transform="translate(-31.166545,-69.691548)"
   id="g28">
	<g
   id="g10">
		<path
   id="path4"
   d="m 59.2,192.18 29.43,-29.44 c 2.77,-2.77 4.33,-6.53 4.33,-10.45 v -23.17 c 0,-10.78 4.28,-21.11 11.9,-28.73 l 11.77,-11.77 c 1.03,-1.03 0.11,-2.76 -1.32,-2.51 -3.57,0.64 -7.17,1.44 -10.78,2.4 -48.67,13.04 -80.84,50.81 -71.86,84.34 1.94,7.23 5.63,13.67 10.72,19.19 4.21,4.56 11.43,4.51 15.81,0.14"
   class="st0" />
		<path
   id="path6"
   d="m 182.41,106.32 -23.19,23.19 c -2.77,2.77 -4.32,6.53 -4.32,10.45 v 23.17 c 0,10.78 -4.28,21.11 -11.9,28.73 l -18.01,18.01 c -1.03,1.03 -0.11,2.76 1.32,2.51 3.57,-0.64 7.17,-1.43 10.78,-2.4 48.67,-13.04 80.84,-50.8 71.86,-84.34 -1.93,-7.23 -5.63,-13.66 -10.72,-19.19 -4.21,-4.56 -11.44,-4.51 -15.82,-0.13"
   class="st0" />
		<path
   id="path8"
   d="m 157.37,74 -39.44,39.44 c -4.16,4.16 -6.49,9.79 -6.49,15.67 v 32.35 c 0,2.94 -1.17,5.76 -3.25,7.84 l -51.86,51.86 c -0.73,0.73 -0.52,1.99 0.43,2.41 4.03,1.78 8.28,3.32 12.71,4.61 5.24,1.52 10.9,0.16 14.76,-3.7 l 45.69,-45.69 c 4.16,-4.16 6.49,-9.79 6.49,-15.68 v -32.35 c 0,-2.94 1.17,-5.76 3.24,-7.84 l 45.61,-45.61 c 0.73,-0.73 0.52,-1.99 -0.43,-2.41 -4.03,-1.78 -8.28,-3.32 -12.71,-4.61 -5.23,-1.5 -10.89,-0.15 -14.75,3.71"
   class="st0" />
	</g>
	<g
   id="g26">
		<path
   id="path12"
   d="m 315.32,161.35 c 0,13.75 -13.05,18.92 -34.67,18.92 -8.45,0 -19.07,-0.43 -28.94,-1.71 -0.72,-0.09 -1.26,-0.72 -1.26,-1.45 v -4.93 c 0,-4.25 3.64,-7.6 7.87,-7.21 8.2,0.74 15.36,1.08 22.1,1.08 9.87,0 17.98,-0.94 17.98,-7.29 v -4.11 c 0,-4.35 -1.88,-4.7 -11.4,-7.05 l -20.45,-4.94 c -9.75,-2.35 -16.34,-6.58 -16.34,-18.33 v -7.64 c 0,-13.87 14.34,-18.92 35.14,-18.92 9.28,0 17.36,0.44 27.92,2.25 0.7,0.12 1.23,0.73 1.23,1.44 v 4.38 c 0,4.3 -3.73,7.63 -8.02,7.19 -7.48,-0.78 -13.61,-1.04 -20.66,-1.04 -10.81,0 -18.69,0.82 -18.69,7.17 v 3.17 c 0,4.58 2.82,5.64 14.1,8.46 l 17.87,4.35 c 10.22,2.58 16.22,5.76 16.22,17.63 z"
   class="st1" />
		<path
   id="path14"
   d="m 453.87,141.72 c 0,-9.52 -6.7,-10.81 -16.1,-10.81 -10.81,0 -14.58,1.76 -17.75,8.34 v 32.95 c 0,4 -3.24,7.25 -7.24,7.25 h -8.11 c -0.8,0 -1.45,-0.65 -1.45,-1.45 v -53.01 c 0,-4 3.24,-7.25 7.25,-7.25 h 6.4 c 0.73,0 1.35,0.55 1.44,1.28 l 0.9,7.54 h 0.7 c 2.82,-7.4 12.11,-9.99 24.92,-9.99 14.81,0 25.85,4.47 25.85,17.4 v 38.24 c 0,4 -3.24,7.25 -7.25,7.25 h -8.11 c -0.8,0 -1.45,-0.65 -1.45,-1.45 z"
   class="st1" />
		<path
   id="path16"
   d="m 511.49,152 -3.65,0.32 c -3.74,0.32 -6.62,3.46 -6.62,7.21 v 12.67 c 0,4 -3.24,7.25 -7.25,7.25 h -8.11 c -0.8,0 -1.45,-0.65 -1.45,-1.45 v -76.16 c 0,-4 3.24,-7.24 7.24,-7.24 h 8.11 c 0.8,0 1.45,0.64 1.45,1.45 v 40.91 c 0,0.86 0.73,1.53 1.58,1.45 l 10.82,-1.02 c 0.87,-0.08 1.68,-0.47 2.28,-1.11 L 531.4,120 c 1.37,-1.43 3.26,-2.25 5.24,-2.25 h 12.24 c 1.27,0 1.92,1.52 1.06,2.44 l -22.76,24.24 24.77,32.7 c 0.72,0.96 0.04,2.33 -1.15,2.33 h -12.23 c -2.23,0 -4.33,-1.03 -5.71,-2.78 l -18.23,-23.3 c -0.73,-0.97 -1.92,-1.49 -3.14,-1.38"
   class="st1" />
		<path
   id="path18"
   d="m 611.45,141.72 c 0,-9.52 -6.47,-10.81 -16.1,-10.81 -10.81,0 -14.58,1.76 -17.75,8.34 v 32.95 c 0,4 -3.24,7.25 -7.24,7.25 h -8.11 c -0.8,0 -1.45,-0.65 -1.45,-1.45 v -76.16 c 0,-4 3.24,-7.25 7.24,-7.25 h 8.11 c 0.8,0 1.45,0.64 1.45,1.45 v 20.53 l -0.82,9.99 h 0.71 c 2.82,-7.4 12.1,-9.99 24.92,-9.99 14.81,0 25.85,4.47 25.85,17.4 v 38.24 c 0,4 -3.24,7.25 -7.24,7.25 h -8.12 c -0.8,0 -1.45,-0.65 -1.45,-1.45 z"
   class="st1" />
		<path
   id="path20"
   d="m 659.65,182.72 -25.83,-62.98 c -0.39,-0.95 0.31,-2 1.34,-2 h 10.43 c 2.97,0 5.65,1.82 6.74,4.59 l 16.48,41.84 15.92,-41.76 c 1.07,-2.81 3.76,-4.67 6.77,-4.67 h 10.19 c 1.02,0 1.72,1.02 1.35,1.97 l -30.45,79.53 c -1.07,2.8 -3.76,4.65 -6.77,4.65 h -10.07 c -1.02,0 -1.72,-1.02 -1.35,-1.96 l 5.31,-13.87 c 0.67,-1.72 0.64,-3.63 -0.06,-5.34"
   class="st1" />
		<path
   id="path22"
   d="m 756.88,170.4 h -0.71 c -2.59,7.05 -11.87,9.87 -24.45,9.87 -14.45,0 -25.5,-4.7 -25.5,-17.51 0,-15.94 8.56,-19.37 25.58,-19.85 9.53,-0.27 14.15,0.23 24.37,1.16 v -4.47 c 0,-5.87 -5.05,-9.28 -21.62,-9.28 -5.97,0 -13.08,0.42 -21.63,1.44 -0.86,0.1 -1.64,-0.56 -1.64,-1.43 V 125 c 0,-3.65 2.73,-6.76 6.37,-7.2 7.83,-0.94 14.92,-1.23 22.08,-1.23 21.86,0 33.26,5.05 33.26,19.39 v 36.24 c 0,4 -3.24,7.25 -7.24,7.25 h -6.51 c -0.73,0 -1.35,-0.55 -1.44,-1.28 z m -0.71,-15.63 c -5.52,-0.71 -11.87,-1.29 -16.45,-1.29 -10.58,0 -16.57,0.94 -16.57,7.29 0,5.88 6.82,6.7 15.04,6.7 9.4,0 14.46,-1.88 17.98,-6.58 z"
   class="st1" />
		<path
   id="path24"
   d="m 373.84,170.4 h -0.71 c -2.59,7.05 -11.87,9.87 -24.45,9.87 -14.45,0 -25.5,-4.7 -25.5,-17.51 0,-15.94 8.56,-19.37 25.58,-19.85 9.53,-0.27 14.14,0.23 24.37,1.16 v -4.47 c 0,-5.87 -5.05,-9.28 -21.62,-9.28 -5.97,0 -13.08,0.42 -21.63,1.44 -0.86,0.1 -1.64,-0.56 -1.64,-1.43 V 125 c 0,-3.65 2.73,-6.76 6.37,-7.2 7.83,-0.94 14.92,-1.23 22.08,-1.23 21.86,0 33.26,5.05 33.26,19.39 v 36.24 c 0,4 -3.24,7.25 -7.24,7.25 h -6.51 c -0.73,0 -1.35,-0.55 -1.44,-1.28 z m -0.7,-15.63 c -5.52,-0.71 -11.87,-1.29 -16.45,-1.29 -10.58,0 -16.57,0.94 -16.57,7.29 0,5.88 6.82,6.7 15.04,6.7 9.4,0 14.46,-1.88 17.98,-6.58 z"
   class="st1" />
	</g>
</g>
</svg>
